<?xml version="1.0" standalone="no"?>
<!DOCTYPE svg PUBLIC "-//W3C//DTD SVG 20010904//EN"
 "http://www.w3.org/TR/2001/REC-SVG-20010904/DTD/svg10.dtd">
<svg version="1.0" xmlns="http://www.w3.org/2000/svg"
 width="1701.000000pt" height="1114.000000pt" viewBox="0 0 1701.000000 1114.000000"
 preserveAspectRatio="xMidYMid meet">

<g transform="translate(0.000000,1114.000000) scale(0.100000,-0.100000)"
fill="#000000" stroke="none">
<path d="M12500 10813 c-19 -9 -582 -227 -1250 -485 -668 -259 -1222 -473
-1231 -477 -14 -5 -9 -25 35 -149 45 -126 53 -143 71 -139 19 4 2501 963 2516
972 7 5 -87 273 -100 286 -3 4 -22 0 -41 -8z"/>
<path d="M4694 10760 c-27 -11 -72 -65 -80 -95 -3 -13 21 -572 53 -1242 l58
-1218 163 -3 162 -2 0 37 c0 21 -23 510 -51 1087 -27 576 -48 1050 -46 1052 2
3 487 -182 1078 -411 590 -228 1076 -412 1080 -407 5 4 30 69 57 144 l49 136
-781 303 c-1699 657 -1625 629 -1675 628 -25 0 -55 -4 -67 -9z"/>
<path d="M13580 10042 c-21 -3 -2428 -929 -2439 -938 -3 -3 26 -85 79 -226 12
-32 26 -58 32 -58 6 0 494 187 1085 416 591 228 1076 414 1078 412 1 -2 -19
-466 -46 -1033 -26 -566 -48 -1056 -49 -1087 l0 -58 160 0 c120 0 162 3 165
13 2 6 29 558 59 1226 54 1170 55 1216 38 1250 -29 58 -96 93 -162 83z"/>
<path d="M3474 9954 c3 -38 31 -609 62 -1269 30 -660 57 -1206 60 -1212 2 -10
44 -13 164 -13 l160 0 0 28 c0 74 -120 2516 -124 2519 -3 3 -77 7 -166 10
l-162 6 6 -69z"/>
<path d="M8005 9898 c-179 -7 -363 -28 -521 -59 -157 -30 -144 -19 -192 -161
-23 -69 -42 -132 -42 -141 0 -24 110 -23 227 3 273 60 440 70 1139 70 709 0
884 -11 1157 -70 50 -11 117 -20 149 -20 56 0 58 1 58 26 0 39 -27 136 -57
204 -22 53 -30 61 -62 69 -101 27 -348 62 -541 76 -117 9 -1119 12 -1315 3z"/>
<path d="M3562 7358 c-105 -155 -262 -464 -355 -698 -150 -378 -244 -768 -285
-1180 l-17 -167 -305 109 c-168 59 -393 139 -500 177 -107 38 -392 140 -633
225 -241 86 -440 156 -443 156 -2 0 -3 -70 -2 -156 l3 -156 935 -333 935 -332
7 -39 c4 -22 7 -70 8 -109 1 -38 7 -123 13 -187 l12 -118 -957 0 -958 0 0
-145 0 -145 982 -2 981 -3 28 -125 c15 -69 37 -156 48 -195 11 -38 19 -71 18
-72 -1 -1 -349 -101 -772 -223 -700 -201 -1030 -296 -1217 -351 l-68 -20 0
-153 0 -154 63 19 c423 127 2083 597 2088 592 3 -5 16 -35 28 -68 182 -494
535 -1093 911 -1545 136 -164 520 -547 685 -684 555 -462 1130 -785 1780
-1002 392 -130 729 -203 1185 -256 163 -19 1554 -19 1725 0 916 101 1704 381
2445 867 510 335 1019 813 1388 1303 210 278 447 676 594 996 67 145 158 369
158 387 0 15 -80 37 960 -263 498 -143 933 -268 968 -278 l62 -17 0 153 c0
137 -2 153 -17 158 -10 3 -207 60 -438 126 -867 249 -1430 412 -1432 414 -2 1
7 36 18 77 11 41 33 128 48 194 l27 120 897 3 897 2 0 145 0 145 -875 0 -876
0 6 33 c11 63 25 253 25 333 l0 81 213 76 c116 42 442 157 722 257 281 100
571 203 645 229 l135 49 3 156 c1 86 -1 156 -5 156 -5 -1 -390 -137 -858 -304
l-850 -303 -7 51 c-3 28 -11 103 -17 166 -47 479 -215 1046 -442 1490 -46 92
-133 240 -207 358 -7 11 -27 11 -108 3 -54 -6 -125 -16 -156 -22 -51 -10 -58
-14 -58 -35 0 -13 29 -67 64 -121 288 -440 507 -1048 581 -1613 17 -134 38
-381 32 -387 -3 -2 -153 -57 -333 -121 l-329 -117 -3 -159 c-2 -148 -1 -158
15 -151 79 31 644 227 646 224 4 -4 -7 -158 -18 -264 l-7 -65 -319 0 -319 0 0
-145 0 -145 290 0 290 0 0 -22 c-1 -25 -64 -275 -71 -283 -3 -2 -113 27 -244
65 -132 38 -246 70 -253 70 -10 0 -12 -34 -10 -152 l3 -151 199 -57 c110 -31
201 -61 203 -67 9 -27 -159 -406 -272 -615 -268 -495 -542 -864 -920 -1244
-681 -682 -1491 -1147 -2389 -1369 -497 -123 -908 -159 -1716 -151 -459 5
-651 17 -923 56 -964 141 -1824 539 -2597 1204 -139 119 -431 413 -554 556
-273 319 -520 696 -717 1095 -119 240 -213 468 -196 475 7 2 113 34 237 70
l225 65 3 153 c1 83 0 152 -3 152 -3 0 -126 -34 -273 -76 -147 -43 -273 -77
-281 -78 -11 -1 -25 40 -52 144 -20 80 -35 148 -32 153 2 4 148 7 324 7 l319
0 0 145 0 145 -349 0 -349 0 -6 48 c-13 104 -26 275 -21 280 3 3 159 -49 347
-116 189 -67 351 -122 361 -122 16 0 17 12 15 152 l-3 151 -290 103 c-159 57
-323 116 -364 130 l-73 27 7 106 c44 691 286 1421 644 1951 17 25 31 50 31 56
0 7 -60 26 -137 44 -76 17 -146 34 -155 36 -11 3 -26 -9 -46 -38z"/>
<path d="M10680 7314 c-212 -45 -421 -234 -504 -455 -62 -165 -73 -388 -27
-544 64 -217 204 -391 386 -480 108 -54 181 -68 310 -63 177 8 302 65 435 199
79 80 127 151 166 247 49 121 59 179 59 332 -1 173 -19 252 -93 394 -66 129
-192 256 -312 315 -139 68 -277 86 -420 55z"/>
<path d="M6320 7174 c-182 -47 -352 -192 -445 -379 -67 -135 -87 -223 -87
-380 0 -152 20 -243 81 -370 92 -192 228 -316 416 -381 69 -24 95 -28 195 -28
100 0 126 4 195 28 235 81 405 275 476 541 30 112 30 307 0 420 -71 272 -275
488 -516 550 -74 19 -241 19 -315 -1z"/>
<path d="M6990 3449 c-567 -900 -680 -1084 -668 -1095 7 -7 66 -51 130 -98
l117 -85 19 27 c46 65 1354 2144 1350 2146 -1 1 -60 44 -129 94 -70 51 -129
92 -132 92 -2 0 -312 -487 -687 -1081z"/>
<path d="M9004 4421 c-23 -14 -199 -285 -685 -1055 -360 -571 -654 -1040 -653
-1044 0 -8 245 -190 255 -191 4 -1 269 415 590 923 321 509 586 923 589 921 4
-2 294 -434 646 -959 436 -652 644 -955 654 -952 20 4 240 159 240 169 0 10
-1415 2123 -1444 2156 -45 51 -136 66 -192 32z"/>
</g>
</svg>
